# File created by Blade
# Date/Time:  Wed Jan 21 18:40:15 2015
#---------------------------------------------------------
:version 1.10
:name HOM
:units
  mass 1.0
  length 1.000000
  angle deg
:documentation
     Acclaim Skeleton File
:root
   axis xyz
   order TX TY TZ RX RY RZ
   position 0.000000 0.000000 0.000000
   orientation 0 0 0
:bonedata
   begin
      id 1
      name RightUpLeg_dum
      direction -1.000000 0.000000 0.000000
      length 3.693983
      axis 0.0 0.0 0.0 xyz
   end
   begin
      id 2
      name LeftUpLeg_dum
      direction 1.000000 0.000000 0.000000
      length 3.693983
      axis 0.0 0.0 0.0 xyz
   end
   begin
      id 3
      name Spine_dum
      direction 0.000000 1.000000 0.000000
      length 2.392956
      axis 0.0 0.0 0.0 xyz
   end
   begin
      id 4
      name RightUpLeg
      direction 0.000000 -1.000000 0.000000
      length 15.795667
      axis 0.0 0.0 0.0 xyz
      dof rx ry rz
   end
   begin
      id 5
      name RightLeg
      direction 0.000000 -1.000000 0.000000
      length 14.766989
      axis 0.0 0.0 0.0 xyz
      dof rx ry rz
   end
   begin
      id 6
      name RightFoot
      direction 0.000000 -0.258819 0.965926
      length 4.962790
      axis 15.0 0.0 0.0 xyz
      dof rx ry rz
   end
   begin
      id 7
      name RightToeBase
      direction 0.000000 0.000000 1.000000
      length 2.952750
      axis 0.0 0.0 0.0 xyz
      dof rx ry rz
   end
   begin
      id 8
      name LeftUpLeg
      direction 0.000000 -1.000000 0.000000
      length 15.795667
      axis 0.0 0.0 0.0 xyz
      dof rx ry rz
   end
   begin
      id 9
      name LeftLeg
      direction 0.000000 -1.000000 0.000000
      length 14.766989
      axis 0.0 0.0 0.0 xyz
      dof rx ry rz
   end
   begin
      id 10
      name LeftFoot
      direction 0.000000 -0.258819 0.965926
      length 4.962790
      axis 15.0 0.0 0.0 xyz
      dof rx ry rz
   end
   begin
      id 11
      name LeftToeBase
      direction 0.000000 0.000000 1.000000
      length 2.952750
      axis 0.0 0.0 0.0 xyz
      dof rx ry rz
   end
   begin
      id 12
      name Spine
      direction 0.000000 1.000000 0.000000
      length 0.000000
      axis 0.0 0.0 0.0 xyz
      dof rx ry rz
   end
   begin
      id 13
      name Spine_dum1
      direction 0.000000 1.000000 0.000000
      length 13.207411
      axis 0.0 0.0 0.0 xyz
   end
   begin
      id 14
      name Spine_dum2
      direction 0.000000 1.000000 0.000000
      length 13.207411
      axis 0.0 0.0 0.0 xyz
   end
   begin
      id 15
      name Spine_dum3
      direction 0.000000 1.000000 0.000000
      length 19.250100
      axis 0.0 0.0 0.0 xyz
   end
   begin
      id 16
      name RightShoulder
      direction -1.000000 0.000000 0.000000
      length 8.140465
      axis 0.0 0.0 90.0 xyz
      dof rx ry rz
   end
   begin
      id 17
      name RightArm
      direction -1.000000 0.000000 0.000000
      length 10.649840
      axis 0.0 0.0 90.0 xyz
      dof rx ry rz
   end
   begin
      id 18
      name RightForeArm
      direction -1.000000 0.000000 0.000000
      length 8.304624
      axis 0.0 0.0 90.0 xyz
      dof ry rz rx
   end
   begin
      id 19
      name RightHand
      direction -1.000000 0.000000 0.000000
      length 0.000000
      axis 0.0 0.0 90.0 xyz
      dof rx ry rz
   end
   begin
      id 20
      name RightHand_dum1
      direction -1.000000 0.000000 0.000000
      length 3.937000
      axis 0.0 0.0 90.0 xyz
   end
   begin
      id 21
      name RightHand_dum2
      direction 0.000000 0.000000 0.000000
      length 0.000000
      axis 0.0 0.0 90.0 xyz
   end
   begin
      id 22
      name RightHandThumb1
      direction 0.000000 0.000000 1.000000
      length 3.937000
      axis 0.0 0.0 90.0 xyz
      dof rx rz ry
   end
   begin
      id 23
      name LeftShoulder
      direction 1.000000 0.000000 0.000000
      length 8.140465
      axis 0.0 0.0 -90.0 xyz
      dof rx ry rz
   end
   begin
      id 24
      name LeftArm
      direction 1.000000 0.000000 0.000000
      length 10.649840
      axis 0.0 0.0 -90.0 xyz
      dof rx ry rz
   end
   begin
      id 25
      name LeftForeArm
      direction 1.000000 0.000000 0.000000
      length 8.304624
      axis 0.0 0.0 -90.0 xyz
      dof ry rz rx
   end
   begin
      id 26
      name LeftHand
      direction 1.000000 0.000000 0.000000
      length 0.000000
      axis 0.0 0.0 -90.0 xyz
      dof rx ry rz
   end
   begin
      id 27
      name LeftHand_dum1
      direction 1.000000 0.000000 0.000000
      length 3.937000
      axis 0.0 0.0 -90.0 xyz
   end
   begin
      id 28
      name LeftHand_dum2
      direction 0.000000 0.000000 0.000000
      length 0.000000
      axis 0.0 0.0 -90.0 xyz
   end
   begin
      id 29
      name LeftHandThumb1
      direction 0.000000 0.000000 1.000000
      length 3.937000
      axis 0.0 0.0 -90.0 xyz
      dof rx rz ry
   end
   begin
      id 30
      name Head
      direction 0.000000 1.000000 0.000000
      length 4.527550
      axis 0.0 0.0 0.0 xyz
      dof rx ry rz
   end
:hierarchy
   begin
      root RightUpLeg_dum LeftUpLeg_dum Spine_dum
      RightUpLeg_dum RightUpLeg
      LeftUpLeg_dum LeftUpLeg
      Spine_dum Spine
      RightUpLeg RightLeg
      RightLeg RightFoot
      RightFoot RightToeBase
      LeftUpLeg LeftLeg
      LeftLeg LeftFoot
      LeftFoot LeftToeBase
      Spine Spine_dum1 Spine_dum2 Spine_dum3
      Spine_dum1 RightShoulder
      Spine_dum2 LeftShoulder
      Spine_dum3 Head
      RightShoulder RightArm
      RightArm RightForeArm
      RightForeArm RightHand
      RightHand RightHand_dum1 RightHand_dum2
      RightHand_dum2 RightHandThumb1
      LeftShoulder LeftArm
      LeftArm LeftForeArm
      LeftForeArm LeftHand
      LeftHand LeftHand_dum1 LeftHand_dum2
      LeftHand_dum2 LeftHandThumb1
   end

# File created by Blade
# Date/Time:  Wed Jan 21 18:40:08 2015
# Frame Rate: 120.000 fps
#------------------------------------------------------
:FULLY-SPECIFIED
:DEGREES
1797
root 0.170866 28.282881 -10.072166 123.284634 -33.796550 0.849152
RightUpLeg -141.820499 -23.561476 7.495157
RightLeg -6.219374 -0.000000 0.000000
RightFoot 8.733229 -2.138607 42.996427
RightToeBase 19.362520 -0.000000 -0.000000
LeftUpLeg -113.204636 7.191760 -44.453202
LeftLeg -10.515725 -0.000000 0.000000
LeftFoot 2.018633 8.080168 -26.536053
LeftToeBase 7.386384 -0.000000 -0.000000
Spine -24.682461 -23.567912 20.024209
RightShoulder -22.284723 3.859879 -37.350220
RightArm -20.034439 -29.021456 69.171009
RightForeArm 7.218480 0.000000 -12.297950
RightHand 10.907821 -0.000000 -0.128527
RightHandThumb1 -24.326973 -0.000000 -32.862282
LeftShoulder 1.453472 -16.179493 43.634097
LeftArm 66.219505 11.783733 -38.660652
LeftForeArm 32.114002 -0.000000 38.745784
LeftHand -14.321301 -0.000000 12.358352
LeftHandThumb1 -26.253704 0.000000 33.147579
Head -73.173325 45.682418 -29.292315
1798
root 0.187071 28.282974 -10.099508 122.956309 -33.665638 1.088204
RightUpLeg -141.655687 -23.722021 7.609847
RightLeg -6.241610 -0.000000 0.000000
RightFoot 8.620079 -2.242847 43.371360
RightToeBase 20.065480 -0.000000 -0.000000
LeftUpLeg -113.095119 7.166645 -44.261503
LeftLeg -10.462016 -0.000000 0.000000
LeftFoot 2.083437 8.081846 -26.429588
LeftToeBase 7.341306 -0.000000 -0.000000
Spine -24.625098 -23.211947 19.775999
RightShoulder -22.160714 4.083357 -37.330652
RightArm -19.690869 -29.199189 69.020697
RightForeArm 7.295043 -0.000000 -12.144242
RightHand 11.224742 -0.000000 -0.551585
RightHandThumb1 -24.326973 -0.000000 -32.862282
LeftShoulder 1.294710 -16.006576 43.565935
LeftArm 65.764253 11.926186 -38.988233
LeftForeArm 32.176718 -0.000000 39.652222
LeftHand -14.401673 0.000000 12.797256
LeftHandThumb1 -26.253704 0.000000 33.147579
Head -72.834439 45.649796 -29.011386
1799
root 0.201239 28.284025 -10.127422 122.620382 -33.524896 1.295319
RightUpLeg -141.461661 -23.864768 7.691219
RightLeg -6.224775 -0.000000 0.000000
RightFoot 8.536359 -2.328976 43.331322
RightToeBase 19.945315 -0.000000 -0.000000
LeftUpLeg -112.993986 7.181173 -44.085855
LeftLeg -10.402413 -0.000000 0.000000
LeftFoot 2.165666 8.057134 -26.377245
LeftToeBase 7.290631 -0.000000 -0.000000
Spine -24.523651 -22.852275 19.515547
RightShoulder -22.030643 4.282594 -37.306710
RightArm -19.346942 -29.410993 68.887109
RightForeArm 7.363432 -0.000000 -11.943164
RightHand 11.359294 -0.000000 -0.858203
RightHandThumb1 -24.326973 -0.000000 -32.862282
LeftShoulder 1.075531 -15.678646 43.457161
LeftArm 65.566480 12.010963 -39.087060
LeftForeArm 32.043890 -0.000000 40.334684
LeftHand -14.579492 0.000000 13.164290
LeftHandThumb1 -26.253704 0.000000 33.147579
Head -72.500630 45.601752 -28.737674
1800
root 0.212962 28.286221 -10.160211 122.340401 -33.342370 1.457809
RightUpLeg -141.287709 -23.950820 7.773613
RightLeg -6.213220 -0.000000 0.000000
RightFoot 8.530273 -2.395065 42.911075
RightToeBase 19.592279 -0.000000 -0.000000
LeftUpLeg -112.962348 7.239478 -43.866569
LeftLeg -10.331342 -0.000000 0.000000
LeftFoot 2.178065 8.050907 -26.357376
LeftToeBase 7.416221 -0.000000 -0.000000
Spine -24.444608 -22.408401 19.253383
RightShoulder -21.926492 4.476339 -37.314353
RightArm -19.031895 -29.725074 68.831374
RightForeArm 7.449308 -0.000000 -11.788354
RightHand 11.507771 0.000000 -1.172483
RightHandThumb1 -24.326973 -0.000000 -32.862282
LeftShoulder 0.917507 -15.507908 43.342569
LeftArm 65.233660 12.170173 -39.174338
LeftForeArm 31.930434 -0.000000 41.017111
LeftHand -14.581004 0.000000 13.753134
LeftHandThumb1 -26.253704 0.000000 33.147579
Head -72.109309 45.578079 -28.424531
1801
root 0.230191 28.288591 -10.189842 122.052968 -33.212379 1.675918
RightUpLeg -141.171457 -24.106546 7.876197
RightLeg -6.178094 -0.000000 0.000000
RightFoot 8.335790 -2.550205 43.092920
RightToeBase 20.207132 -0.000000 -0.000000
LeftUpLeg -112.869382 7.233981 -43.649071
LeftLeg -10.292148 -0.000000 0.000000
LeftFoot 2.257969 8.039441 -26.372284
LeftToeBase 7.403170 -0.000000 -0.000000
Spine -24.419702 -22.016911 19.018924
RightShoulder -21.805627 4.641980 -37.336628
RightArm -18.756741 -30.163760 68.833826
RightForeArm 7.702000 -0.000000 -11.593818
RightHand 11.645747 -0.000000 -1.463202
RightHandThumb1 -24.326973 -0.000000 -32.862282
LeftShoulder 0.778637 -15.285398 43.244788
LeftArm 64.827455 12.271872 -39.400331
LeftForeArm 31.894602 -0.000000 41.722931
LeftHand -14.688446 0.000000 13.906640
LeftHandThumb1 -26.253704 0.000000 33.147579
Head -71.612506 45.508798 -28.049848
1802
root 0.243203 28.292961 -10.218155 121.710688 -32.981121 1.912422
RightUpLeg -140.964385 -24.216377 8.047785
RightLeg -6.185744 -0.000000 0.000000
RightFoot 8.334082 -2.567569 42.937845
RightToeBase 19.951733 -0.000000 -0.000000
LeftUpLeg -112.726031 7.333475 -43.214997
LeftLeg -10.327549 -0.000000 0.000000
LeftFoot 2.330395 8.238894 -26.218249
LeftToeBase 7.426471 -0.000000 -0.000000
Spine -24.316295 -21.637315 18.868050
RightShoulder -21.647882 4.827555 -37.329817
RightArm -18.411465 -30.356637 68.707109
RightForeArm 7.740446 -0.000000 -11.435088
RightHand 11.874356 -0.000000 -1.877564
RightHandThumb1 -24.326973 -0.000000 -32.862282
LeftShoulder 0.612081 -15.106778 43.167760
LeftArm 64.363136 12.407798 -39.677019
LeftForeArm 32.090911 -0.000000 42.359299
LeftHand -14.582284 -0.000000 14.575898
LeftHandThumb1 -26.253704 0.000000 33.147579
Head -71.320852 45.457649 -27.801261
